<svg width="48" height="36" viewBox="0 0 48 36" fill="none" xmlns="http://www.w3.org/2000/svg">
<g clip-path="url(#clip0_87_106)">
<path d="M40.6607 3.01494C37.507 1.58618 34.1777 0.57257 30.7579 0C30.2899 0.827851 29.8665 1.6796 29.4893 2.55168C25.8465 2.00848 22.1421 2.00848 18.4993 2.55168C18.1219 1.67969 17.6985 0.827951 17.2307 0C13.8087 0.577405 10.4772 1.59342 7.3204 3.02242C1.05329 12.198 -0.645624 21.1457 0.203834 29.9664C3.87401 32.6498 7.98198 34.6906 12.3492 36C13.3326 34.6912 14.2027 33.3027 14.9504 31.8493C13.5302 31.3244 12.1595 30.6769 10.8541 29.9141C11.1977 29.6675 11.5337 29.4134 11.8584 29.1669C15.6568 30.9345 19.8025 31.851 24 31.851C28.1974 31.851 32.3432 30.9345 36.1415 29.1669C36.47 29.4321 36.806 29.6862 37.1458 29.9141C35.8379 30.6781 34.4646 31.3269 33.042 31.8531C33.7888 33.3058 34.659 34.6931 35.6432 36C40.0141 34.6958 44.1252 32.656 47.7961 29.9701C48.7928 19.741 46.0934 10.8755 40.6607 3.01494ZM16.0264 24.5417C13.6592 24.5417 11.7036 22.4159 11.7036 19.8007C11.7036 17.1856 13.5913 15.0411 16.0188 15.0411C18.4464 15.0411 20.3869 17.1856 20.3454 19.8007C20.3039 22.4159 18.4389 24.5417 16.0264 24.5417ZM31.9735 24.5417C29.6026 24.5417 27.6545 22.4159 27.6545 19.8007C27.6545 17.1856 29.5422 15.0411 31.9735 15.0411C34.4049 15.0411 36.3303 17.1856 36.2888 19.8007C36.2473 22.4159 34.386 24.5417 31.9735 24.5417Z" fill="#CECECE"/>
</g>
<defs>
<clipPath id="clip0_87_106">
<rect width="48" height="36" fill="white"/>
</clipPath>
</defs>
</svg>
